<svg width="32" height="32" viewBox="0 0 32 32" fill="none" xmlns="http://www.w3.org/2000/svg">
<path d="M3.1242 7.7197C3.1662 7.35772 3.3272 7.01768 3.6042 6.69857L7.4442 2.86933C7.7432 2.61405 7.9672 2.65692 8.1162 2.99697L11.2202 8.80466C11.3912 9.1447 11.3372 9.47477 11.0602 9.79388L9.6522 11.1979C9.3962 11.4532 9.2472 11.7833 9.2042 12.1872C9.2042 12.8254 9.5352 13.6441 10.1962 14.6443C10.8572 15.6444 11.5082 16.4951 12.1482 17.1981L13.1402 18.2182C13.4392 18.5164 13.8222 18.8833 14.2932 19.3191C14.7622 19.7549 15.5352 20.3293 16.6122 21.0423C17.6892 21.7553 18.5382 22.1113 19.1562 22.1113C19.5612 22.1113 19.9032 21.9727 20.1802 21.6964L21.8452 20.0371C22.1442 19.7389 22.4632 19.6961 22.8042 19.9095L28.4052 23.1962C28.5542 23.282 28.6402 23.3927 28.6612 23.5313C28.6822 23.6699 28.6402 23.7926 28.5332 23.8983L24.6932 27.7275C24.3732 28.0037 24.0312 28.1643 23.6702 28.2052C22.6242 28.3547 21.4452 28.2111 20.1332 27.7744C18.8212 27.3376 17.6062 26.7582 16.4862 26.0353C15.3662 25.3123 14.3262 24.5783 13.3662 23.8344C12.4062 23.0895 11.6382 22.4513 11.0622 21.9198L10.2302 21.1211C10.0172 20.9087 9.7342 20.6165 9.3822 20.2435C9.0302 19.8706 8.4152 19.1386 7.5402 18.0427C6.6652 16.9468 5.9082 15.8778 5.2682 14.8357C4.6282 13.7936 4.0742 12.607 3.6042 11.2777C3.1352 9.94844 2.9752 8.76178 3.1242 7.7197Z" fill="white"/>
</svg>
