<svg width="16" height="15" viewBox="0 0 16 15" fill="none" xmlns="http://www.w3.org/2000/svg">
<path d="M7.36043 0.362534C7.51634 -0.12089 8.2003 -0.120889 8.3562 0.362534L9.84437 4.97694C9.91419 5.19344 10.1159 5.34 10.3434 5.3395L15.1918 5.32891C15.6998 5.3278 15.9111 5.97828 15.4995 6.27594L11.5708 9.1172C11.3865 9.25051 11.3095 9.48765 11.3802 9.70385L12.8886 14.3117C13.0466 14.7944 12.4932 15.1965 12.083 14.897L8.16673 12.0386C7.98299 11.9045 7.73364 11.9045 7.5499 12.0386L3.63367 14.897C3.22339 15.1965 2.67005 14.7944 2.82807 14.3117L4.3364 9.70385C4.40716 9.48765 4.33011 9.25051 4.14578 9.1172L0.217095 6.27594C-0.194491 5.97828 0.0168653 5.3278 0.524806 5.32891L5.37323 5.3395C5.60071 5.34 5.80244 5.19344 5.87226 4.97694L7.36043 0.362534Z" fill="#FFD43C"/>
</svg>
