<svg width="24" height="24" viewBox="0 0 24 24" fill="none" xmlns="http://www.w3.org/2000/svg">
<path d="M15.3795 7.4001C16.4288 7.4001 17.2795 6.54944 17.2795 5.5001C17.2795 4.45076 16.4288 3.6001 15.3795 3.6001C14.3302 3.6001 13.4795 4.45076 13.4795 5.5001C13.4795 6.54944 14.3302 7.4001 15.3795 7.4001Z" stroke="#0D1222" stroke-width="1.2" stroke-miterlimit="10" stroke-linecap="round" stroke-linejoin="round"/>
<path d="M17.2695 5.5H20.4395" stroke="#0D1222" stroke-width="1.2" stroke-miterlimit="10" stroke-linecap="round" stroke-linejoin="round"/>
<path d="M2.59961 5.5H13.4796" stroke="#0D1222" stroke-width="1.2" stroke-miterlimit="10" stroke-linecap="round" stroke-linejoin="round"/>
<path d="M7.9 13.7602C8.94934 13.7602 9.8 12.9095 9.8 11.8602C9.8 10.8109 8.94934 9.96021 7.9 9.96021C6.85066 9.96021 6 10.8109 6 11.8602C6 12.9095 6.85066 13.7602 7.9 13.7602Z" stroke="#0D1222" stroke-width="1.2" stroke-miterlimit="10" stroke-linecap="round" stroke-linejoin="round"/>
<path d="M9.7998 11.8601H20.4398" stroke="#0D1222" stroke-width="1.2" stroke-miterlimit="10" stroke-linecap="round" stroke-linejoin="round"/>
<path d="M2.59961 11.8601H6.00961" stroke="#0D1222" stroke-width="1.2" stroke-miterlimit="10" stroke-linecap="round" stroke-linejoin="round"/>
<path d="M15.3795 20.1201C16.4288 20.1201 17.2795 19.2694 17.2795 18.2201C17.2795 17.1707 16.4288 16.3201 15.3795 16.3201C14.3302 16.3201 13.4795 17.1707 13.4795 18.2201C13.4795 19.2694 14.3302 20.1201 15.3795 20.1201Z" stroke="#0D1222" stroke-width="1.2" stroke-miterlimit="10" stroke-linecap="round" stroke-linejoin="round"/>
<path d="M17.2695 18.2202H20.4395" stroke="#0D1222" stroke-width="1.2" stroke-miterlimit="10" stroke-linecap="round" stroke-linejoin="round"/>
<path d="M2.59961 18.2202H13.4796" stroke="#0D1222" stroke-width="1.2" stroke-miterlimit="10" stroke-linecap="round" stroke-linejoin="round"/>
</svg>
