<svg width="24" height="24" viewBox="0 0 24 24" fill="none" xmlns="http://www.w3.org/2000/svg">
<path d="M12.119 15.6003C14.0023 15.6003 15.529 14.0736 15.529 12.1903C15.529 10.307 14.0023 8.78027 12.119 8.78027C10.2357 8.78027 8.70898 10.307 8.70898 12.1903C8.70898 14.0736 10.2357 15.6003 12.119 15.6003Z" stroke="#969696" stroke-width="1.2" stroke-miterlimit="10" stroke-linecap="round" stroke-linejoin="round"/>
<path d="M12.1196 17.7801C17.3774 17.7801 21.6396 15.2774 21.6396 12.1901C21.6396 9.10283 17.3774 6.6001 12.1196 6.6001C6.86186 6.6001 2.59961 9.10283 2.59961 12.1901C2.59961 15.2774 6.86186 17.7801 12.1196 17.7801Z" stroke="#969696" stroke-width="1.2" stroke-miterlimit="10" stroke-linecap="round" stroke-linejoin="round"/>
<path d="M3 21C11.7868 12.2132 12.2132 11.7868 21 3" stroke="#969696" stroke-linecap="round"/>
</svg>
