<svg width="16" height="17" viewBox="0 0 16 17" fill="none" xmlns="http://www.w3.org/2000/svg">
<g clip-path="url(#clip0_1_700)">
<path d="M15.993 8.46314C15.993 7.78242 15.9385 7.28568 15.8207 6.77054H8.16001V9.84297H12.6567C12.566 10.6065 12.0765 11.7564 10.9885 12.5291L10.9733 12.6319L13.3955 14.5359L13.5633 14.5529C15.1045 13.1086 15.993 10.9837 15.993 8.46314Z" fill="#4285F4"/>
<path d="M8.1594 16.5582C10.3624 16.5582 12.2118 15.8223 13.5627 14.5529L10.9879 12.529C10.299 13.0166 9.37421 13.3569 8.1594 13.3569C6.00173 13.3569 4.17043 11.9127 3.51762 9.91655L3.42193 9.9248L0.903324 11.9026L0.870387 11.9955C2.21213 14.7 4.96817 16.5582 8.1594 16.5582Z" fill="#34A853"/>
<path d="M3.51754 9.91659C3.34529 9.40145 3.2456 8.84947 3.2456 8.27916C3.2456 7.70879 3.34529 7.15687 3.50848 6.64173L3.50392 6.53202L0.953744 4.52246L0.870307 4.56273C0.317311 5.68502 0 6.94531 0 8.27916C0 9.61301 0.317311 10.8732 0.870307 11.9955L3.51754 9.91659Z" fill="#FBBC05"/>
<path d="M8.1594 3.20123C9.69152 3.20123 10.725 3.87276 11.3143 4.43393L13.6171 2.15257C12.2028 0.818715 10.3624 0 8.1594 0C4.96817 0 2.21213 1.85818 0.870387 4.56267L3.50856 6.64167C4.17043 4.64549 6.00173 3.20123 8.1594 3.20123Z" fill="#EB4335"/>
</g>
<defs>
<clipPath id="clip0_1_700">
<rect width="15.6" height="16.2" fill="white" transform="scale(1.02563)"/>
</clipPath>
</defs>
</svg>
